<svg version="1" xmlns="http://www.w3.org/2000/svg" width="346.667" height="346.667" viewBox="0 0 260.000000 260.000000"><path d="M81 8v8H49v17H32v16H16v32H0v98h16v32h16v17h17v16h32v16h98v-16h32v-16h16v-17h17v-32h16V81h-16V49h-17V33h-16V16h-32V0H81v8zm33 24.5V49h16V16h32v17h49v16h16v32h17v17h-49v16h49v16h-17v16h17v33h-17v32h-16v-48h-16v65h-16v16h-49v-16h-16v16H81v-16H49v-17H32v-32h49v-16H16V81h16V49h17V33h32V16h33v16.5z"/><path d="M146 57v24h16v17h33V81h-33V33h-16v24zM97 57v8H81v49h16v16h17v16h16v17h16v16h16v49h17v-49h-17v-16h-16v-17h-16v-16h-16v-16H97V65h17V49H97v8zM211 154.5v8.5h16v-17h-16v8.5zM81 187v8h16v33h17v-33H97v-16H81v8z"/></svg>